<svg baseProfile="full" height="180.0" version="1.1" width="750" xmlns="http://www.w3.org/2000/svg" xmlns:ev="http://www.w3.org/2001/xml-events" xmlns:xlink="http://www.w3.org/1999/xlink"><defs /><g transform="translate(0,110)"><line stroke="#000000" stroke-width="3" x1="0" x2="750" y1="0" y2="0" /><path d="M91,0 L91,-15 L81,-15" fill="none" stroke="#ea3d69" stroke-width="1" /><text fill="#3a3a4d" font-family="Helevetica" font-size="6pt" stroke="none" text-anchor="end" x="78" y="-13.5">Projektgründung</text><text fill="#000000" font-family="Helvetica" font-size="6pt" stroke="none" text-anchor="end" transform="rotate(180, 91, 0)" writing-mode="tb" x="91" y="-10">18.09.2019</text><circle cx="91" cy="0" fill="#ea3d69" r="4" stroke="#ea3d69" stroke-width="1" /><path d="M99,0 L99,-25 L89,-25" fill="none" stroke="#ea3d69" stroke-width="1" /><text fill="#3a3a4d" font-family="Helevetica" font-size="6pt" stroke="none" text-anchor="end" x="86" y="-23.5">Erstes Plenum</text><text fill="#000000" font-family="Helvetica" font-size="6pt" stroke="none" text-anchor="end" transform="rotate(180, 99, 0)" writing-mode="tb" x="99" y="-10">19.10.2019</text><circle cx="99" cy="0" fill="#ea3d69" r="4" stroke="#ea3d69" stroke-width="1" /><path d="M381,0 L381,-35 L371,-35" fill="none" stroke="#ea3d69" stroke-width="1" /><text fill="#3a3a4d" font-family="Helevetica" font-size="6pt" stroke="none" text-anchor="end" x="368" y="-33.5">Vereinsgründung mit symbolischer Grundsteinlegung</text><text fill="#000000" font-family="Helvetica" font-size="6pt" stroke="none" text-anchor="end" transform="rotate(180, 381, 0)" writing-mode="tb" x="381" y="-10">08.10.2022</text><circle cx="381" cy="0" fill="#ea3d69" r="4" stroke="#ea3d69" stroke-width="1" /><path d="M544,0 L544,-45 L534,-45" fill="none" stroke="#ea3d69" stroke-width="1" /><text fill="#3a3a4d" font-family="Helevetica" font-size="6pt" stroke="none" text-anchor="end" x="531" y="-43.5">Bewerbungsabgabe für Baugrundstück in Kleineschholz mit Konzeptbeschreibung</text><text fill="#000000" font-family="Helvetica" font-size="6pt" stroke="none" text-anchor="end" transform="rotate(180, 544, 0)" writing-mode="tb" x="544" y="-10">26.06.2024</text><circle cx="544" cy="0" fill="#ea3d69" r="4" stroke="#ea3d69" stroke-width="1" /><path d="M587,0 L587,-55 L577,-55" fill="none" stroke="#ea3d69" stroke-width="1" /><text fill="#3a3a4d" font-family="Helevetica" font-size="6pt" stroke="none" text-anchor="end" x="574" y="-53.5">Grundstücksreservierungszusage der Stadt Freiburg / Gemeinderatsitzung</text><text fill="#000000" font-family="Helvetica" font-size="6pt" stroke="none" text-anchor="end" transform="rotate(180, 587, 0)" writing-mode="tb" x="587" y="-10">10.12.2024</text><circle cx="587" cy="0" fill="#ea3d69" r="4" stroke="#ea3d69" stroke-width="1" /><path d="M600,0 L600,-65 L590,-65" fill="none" stroke="#ea3d69" stroke-width="1" /><text fill="#3a3a4d" font-family="Helevetica" font-size="6pt" stroke="none" text-anchor="end" x="587" y="-63.5">GmbH-Gründung</text><text fill="#000000" font-family="Helvetica" font-size="6pt" stroke="none" text-anchor="end" transform="rotate(180, 600, 0)" writing-mode="tb" x="600" y="-10">30.01.2025</text><circle cx="600" cy="0" fill="#ea3d69" r="4" stroke="#ea3d69" stroke-width="1" /><path d="M615,0 L615,-75 L605,-75" fill="none" stroke="#ea3d69" stroke-width="1" /><text fill="#3a3a4d" font-family="Helevetica" font-size="6pt" stroke="none" text-anchor="end" x="602" y="-73.5">GmbH-Eintragung im Handelsregister</text><text fill="#000000" font-family="Helvetica" font-size="6pt" stroke="none" text-anchor="end" transform="rotate(180, 615, 0)" writing-mode="tb" x="615" y="-10">27.03.2025</text><circle cx="615" cy="0" fill="#ea3d69" r="4" stroke="#ea3d69" stroke-width="1" /><path d="M648,0 L648,-85 L638,-85" fill="none" stroke="#ea3d69" stroke-width="1" /><text fill="#3a3a4d" font-family="Helevetica" font-size="6pt" stroke="none" text-anchor="end" x="635" y="-83.5">Beteiligungsbeschluss Mietshäuser Syndikat</text><text fill="#000000" font-family="Helvetica" font-size="6pt" stroke="none" text-anchor="end" transform="rotate(180, 648, 0)" writing-mode="tb" x="648" y="-10">02.08.2025</text><circle cx="648" cy="0" fill="#ea3d69" r="4" stroke="#ea3d69" stroke-width="1" /></g></svg>
